<svg id="レイヤー_1" data-name="レイヤー 1" xmlns="http://www.w3.org/2000/svg" viewBox="0 0 840.3 78"><defs><style>.cls-1{fill:#fff;}</style></defs><title>logo</title><path class="cls-1" d="M83,1,48.7,78H33.6L0,1H23.8L41.2,44.9,59.1,1Z"/><path class="cls-1" d="M198.4,1,165.6,78H152.3L132.6,33.2,112.3,78H99L66.8,1H90.5l15.8,42.1L124.3,1h16.4l17.8,42.1L175,1Z"/><path class="cls-1" d="M276.7,39a39.5,39.5,0,0,1-4.9,19.5,34.5,34.5,0,0,1-14.6,14.2c-6.4,3.5-14.3,5.3-23.6,5.3s-17.3-1.9-23.8-5.5a36.5,36.5,0,0,1-14.5-14.4A39.7,39.7,0,0,1,190.6,39a39.6,39.6,0,0,1,4.7-19.2A34.5,34.5,0,0,1,209.8,5.5C216.3,1.8,224.2,0,233.6,0a52.6,52.6,0,0,1,18.8,3.1A38,38,0,0,1,266,11.6,36.2,36.2,0,0,1,274,24,42,42,0,0,1,276.7,39Zm-23.3,0a21.3,21.3,0,0,0-1.3-7.8,16.5,16.5,0,0,0-10-10.2,22.2,22.2,0,0,0-8.5-1.5q-9.2,0-14.4,5.4c-3.6,3.6-5.3,8.3-5.3,14.1s1.8,10.5,5.3,14.1,8.3,5.4,14.4,5.4A22.7,22.7,0,0,0,244.4,56a17.1,17.1,0,0,0,6.7-6.9A22.1,22.1,0,0,0,253.4,39Z"/><path class="cls-1" d="M368.9,74.4l-5.2,1.7a47.5,47.5,0,0,1-6.2,1.4,57.8,57.8,0,0,1-7.5.5,36,36,0,0,1-15.5-3.1,26.5,26.5,0,0,1-9.7-7.8,28.8,28.8,0,0,1-4.8-9.6,36.7,36.7,0,0,1-1.3-8.6,33.2,33.2,0,0,1,1.4-8.6,29.3,29.3,0,0,1,4.6-9.4,26.1,26.1,0,0,1,9.7-7.6c4.2-2.1,9.4-3.1,15.6-3.1a46.5,46.5,0,0,1,10.1.9,64.3,64.3,0,0,1,7.9,2.4V39c-6.5-2.1-11.5-3.1-15.1-3.1a14.8,14.8,0,0,0-9.3,3.2c-2.8,2.1-4.1,5.4-4.1,9.8a13.5,13.5,0,0,0,2,7.5,13.2,13.2,0,0,0,5.2,4.5,15.1,15.1,0,0,0,6.2,1.4,30.3,30.3,0,0,0,6.8-.9l9.2-2.5Z"/><path class="cls-1" d="M438,77H418.3V46.1a15.1,15.1,0,0,0-1.7-7.3c-1.1-2.2-3.2-3.3-6.4-3.3a9.9,9.9,0,0,0-6.6,2.4,34.2,34.2,0,0,0-5.4,6.3V77H378.4V1h19.8V29.2a24.9,24.9,0,0,1,19.8-9c13.3,0,20,7.5,20,22.5Z"/><path class="cls-1" d="M504.8,53.9H465.5a14,14,0,0,0,5.7,8.3,17.4,17.4,0,0,0,10.2,3.2c6.6,0,13.9-1.8,22-5.6V72.1a59.3,59.3,0,0,1-10.5,4c-4.1,1.3-9.4,1.9-15.7,1.9s-12.7-1.3-17.5-3.9a25,25,0,0,1-10.9-10.4,30.4,30.4,0,0,1-3.6-14.9,29.6,29.6,0,0,1,3.6-14.7,25.1,25.1,0,0,1,10.9-10.2,38.7,38.7,0,0,1,17.5-3.7,30.2,30.2,0,0,1,13.1,3,23.7,23.7,0,0,1,10.4,9.5c2.7,4.5,4.1,10.2,4.1,17.2Zm-18.5-9.8a13,13,0,0,0-2.7-8.6c-1.7-2.1-4.3-3.2-7.6-3.2a10.3,10.3,0,0,0-8,3.3,12.1,12.1,0,0,0-3,8.5Z"/><path class="cls-1" d="M560,74.4a53,53,0,0,1-5.2,1.7,42.5,42.5,0,0,1-6.1,1.4,57.8,57.8,0,0,1-7.5.5,36,36,0,0,1-15.5-3.1,25.7,25.7,0,0,1-9.7-7.8,28.8,28.8,0,0,1-4.8-9.6,32.1,32.1,0,0,1-1.3-8.6,37.5,37.5,0,0,1,1.3-8.6,29.6,29.6,0,0,1,4.7-9.4,26.1,26.1,0,0,1,9.7-7.6c4.2-2.1,9.4-3.1,15.6-3.1a46.5,46.5,0,0,1,10.1.9,64.3,64.3,0,0,1,7.9,2.4V39c-6.5-2.1-11.5-3.1-15.1-3.1a14.8,14.8,0,0,0-9.3,3.2c-2.8,2.1-4.1,5.4-4.1,9.8a12.7,12.7,0,0,0,2,7.5,13.2,13.2,0,0,0,5.2,4.5,15.1,15.1,0,0,0,6.2,1.4,28.8,28.8,0,0,0,6.7-.9c2.6-.6,5.6-1.4,9.2-2.5Z"/><path class="cls-1" d="M635.9,77h-25L589.5,50.5V77h-20V1h20V45.6L609,21.2h23.7l-21.8,26Z"/><path class="cls-1" d="M696.3,77H676.5V1h19.8Z"/><path class="cls-1" d="M730.7,77H710.9V21.2h19.8ZM729.1,8.3a7.8,7.8,0,0,1-2.5,5.9,8,8,0,0,1-5.8,2.4,8.2,8.2,0,0,1-4.2-1.1,7.2,7.2,0,0,1-3-3,7.3,7.3,0,0,1-1.1-4.2,8,8,0,0,1,2.4-5.8,8.1,8.1,0,0,1,11.7,0A7.7,7.7,0,0,1,729.1,8.3Z"/><path class="cls-1" d="M785.6,60.7A15.5,15.5,0,0,1,780,73.2c-3.7,3.2-9.3,4.8-16.7,4.8a51.8,51.8,0,0,1-11-1.1,102.7,102.7,0,0,1-10.5-3.3v-14a57.6,57.6,0,0,0,8.7,4.3,20.7,20.7,0,0,0,8,1.5c4.9,0,7.4-1.3,7.4-4a3.2,3.2,0,0,0-1.1-2.5,14.7,14.7,0,0,0-3.7-2.4L754,53.3a27.9,27.9,0,0,1-9.3-6.5,13.7,13.7,0,0,1-3.8-9.9,14.5,14.5,0,0,1,2.5-8,18.7,18.7,0,0,1,7.7-6.2,27.9,27.9,0,0,1,12.5-2.5l4.4.3a40.2,40.2,0,0,1,6.9,1.3,31.9,31.9,0,0,1,7.8,2.9V38.4l-2.9-1.8a23.5,23.5,0,0,0-3.2-1.6,22.6,22.6,0,0,0-4.6-1.5,20,20,0,0,0-5.4-.7c-2.3,0-3.9.4-4.7,1.3a4,4,0,0,0-1.3,2.6,3.6,3.6,0,0,0,1.4,2.6,24.6,24.6,0,0,0,5.8,2.9,51.2,51.2,0,0,1,10.5,5.2,16.5,16.5,0,0,1,5.7,5.8A16,16,0,0,1,785.6,60.7Z"/><path class="cls-1" d="M840.3,73.8a50.9,50.9,0,0,1-8.4,2.8A43.2,43.2,0,0,1,821.5,78c-14.2,0-21.3-7-21.3-20.8V34.9h-8.9V31.5l26.4-27H820V21.2h18.8V34.9H820V52.8a23.5,23.5,0,0,0,.4,5,4.9,4.9,0,0,0,2.1,3.2c1.2.9,3,1.3,5.4,1.3s7.3-1.3,12.4-3.9Z"/></svg>